%TF.GenerationSoftware,KiCad,Pcbnew,(5.1.7)-1*%
%TF.CreationDate,2020-10-15T21:52:00-04:00*%
%TF.ProjectId,DanA4UsbBreakout,44616e41-3455-4736-9242-7265616b6f75,rev?*%
%TF.SameCoordinates,Original*%
%TF.FileFunction,Copper,L2,Bot*%
%TF.FilePolarity,Positive*%
%FSLAX46Y46*%
G04 Gerber Fmt 4.6, Leading zero omitted, Abs format (unit mm)*
G04 Created by KiCad (PCBNEW (5.1.7)-1) date 2020-10-15 21:52:00*
%MOMM*%
%LPD*%
G01*
G04 APERTURE LIST*
%TA.AperFunction,ViaPad*%
%ADD10C,0.800000*%
%TD*%
%TA.AperFunction,Conductor*%
%ADD11C,0.500000*%
%TD*%
%TA.AperFunction,Conductor*%
%ADD12C,0.254000*%
%TD*%
%TA.AperFunction,Conductor*%
%ADD13C,0.100000*%
%TD*%
G04 APERTURE END LIST*
D10*
%TO.N,GNDS*%
X49149000Y-35941000D03*
X55943500Y-44513500D03*
%TO.N,+5V*%
X55245000Y-31559500D03*
X58674000Y-45720006D03*
%TO.N,GNDS*%
X46101000Y-47180500D03*
X47752000Y-22860000D03*
X60457000Y-18791000D03*
X63390000Y-25827500D03*
X51562000Y-25463500D03*
X43798000Y-35069000D03*
X53086000Y-41465500D03*
X55372000Y-34099500D03*
X58928000Y-36957000D03*
%TD*%
D11*
%TO.N,+5V*%
X58674000Y-41275000D02*
X58674000Y-45720006D01*
X56896000Y-39497000D02*
X58674000Y-41275000D01*
X56896000Y-33210500D02*
X56896000Y-39497000D01*
X55245000Y-31559500D02*
X56896000Y-33210500D01*
%TD*%
D12*
%TO.N,GNDS*%
X63949533Y-16980767D02*
X64015457Y-17000671D01*
X64076255Y-17032997D01*
X64129619Y-17076521D01*
X64173512Y-17129578D01*
X64206266Y-17190153D01*
X64226628Y-17255935D01*
X64237000Y-17354613D01*
X64237001Y-35119235D01*
X64219792Y-35432543D01*
X64153609Y-35691360D01*
X64038413Y-35932398D01*
X63863781Y-36166311D01*
X63832200Y-36199391D01*
X60685697Y-39329625D01*
X60667906Y-39351189D01*
X60663562Y-39355443D01*
X60657689Y-39362544D01*
X60407041Y-39669869D01*
X60373959Y-39719662D01*
X60340141Y-39769051D01*
X60335759Y-39777157D01*
X60149577Y-40127313D01*
X60126776Y-40182633D01*
X60103216Y-40237601D01*
X60100491Y-40246405D01*
X59985868Y-40626056D01*
X59974249Y-40684736D01*
X59961812Y-40743246D01*
X59960849Y-40752411D01*
X59922150Y-41147095D01*
X59922150Y-41147108D01*
X59919001Y-41179081D01*
X59919000Y-53053719D01*
X59909115Y-53154531D01*
X59889211Y-53220458D01*
X59856885Y-53281255D01*
X59813362Y-53334618D01*
X59760300Y-53378515D01*
X59699727Y-53411266D01*
X59633947Y-53431628D01*
X59535269Y-53442000D01*
X47657281Y-53442000D01*
X47556469Y-53432115D01*
X47490542Y-53412211D01*
X47429745Y-53379885D01*
X47376382Y-53336362D01*
X47332485Y-53283300D01*
X47299734Y-53222727D01*
X47279372Y-53156947D01*
X47269000Y-53058269D01*
X47269000Y-51063209D01*
X47266415Y-51036959D01*
X47266477Y-51031011D01*
X47265609Y-51021837D01*
X47225532Y-50627290D01*
X47213706Y-50568640D01*
X47202705Y-50509854D01*
X47200072Y-50501023D01*
X47084124Y-50121774D01*
X47061123Y-50066518D01*
X47038921Y-50011008D01*
X47034623Y-50002856D01*
X46847220Y-49653351D01*
X46813949Y-49603652D01*
X46781364Y-49553474D01*
X46775564Y-49546313D01*
X46564650Y-49289542D01*
X46564309Y-49288908D01*
X46502303Y-49213752D01*
X43373266Y-46100896D01*
X43183653Y-45870057D01*
X43057410Y-45634615D01*
X42979303Y-45379138D01*
X42949804Y-45088725D01*
X42950362Y-45060399D01*
X42951000Y-45053919D01*
X42951000Y-38381589D01*
X47813000Y-38381589D01*
X47813000Y-38654411D01*
X47866225Y-38921989D01*
X47970629Y-39174043D01*
X48122201Y-39400886D01*
X48315114Y-39593799D01*
X48541957Y-39745371D01*
X48794011Y-39849775D01*
X49061589Y-39903000D01*
X49334411Y-39903000D01*
X49601989Y-39849775D01*
X49854043Y-39745371D01*
X50080886Y-39593799D01*
X50273799Y-39400886D01*
X50425371Y-39174043D01*
X50529775Y-38921989D01*
X50583000Y-38654411D01*
X50583000Y-38381589D01*
X50529775Y-38114011D01*
X50425371Y-37861957D01*
X50273799Y-37635114D01*
X50080886Y-37442201D01*
X49854043Y-37290629D01*
X49601989Y-37186225D01*
X49334411Y-37133000D01*
X49061589Y-37133000D01*
X48794011Y-37186225D01*
X48541957Y-37290629D01*
X48315114Y-37442201D01*
X48122201Y-37635114D01*
X47970629Y-37861957D01*
X47866225Y-38114011D01*
X47813000Y-38381589D01*
X42951000Y-38381589D01*
X42951000Y-33481589D01*
X47813000Y-33481589D01*
X47813000Y-33754411D01*
X47866225Y-34021989D01*
X47970629Y-34274043D01*
X48122201Y-34500886D01*
X48315114Y-34693799D01*
X48541957Y-34845371D01*
X48794011Y-34949775D01*
X49061589Y-35003000D01*
X49334411Y-35003000D01*
X49601989Y-34949775D01*
X49854043Y-34845371D01*
X50080886Y-34693799D01*
X50273799Y-34500886D01*
X50425371Y-34274043D01*
X50529775Y-34021989D01*
X50583000Y-33754411D01*
X50583000Y-33481589D01*
X50529775Y-33214011D01*
X50425371Y-32961957D01*
X50273799Y-32735114D01*
X50080886Y-32542201D01*
X49854043Y-32390629D01*
X49601989Y-32286225D01*
X49334411Y-32233000D01*
X49061589Y-32233000D01*
X48794011Y-32286225D01*
X48541957Y-32390629D01*
X48315114Y-32542201D01*
X48122201Y-32735114D01*
X47970629Y-32961957D01*
X47866225Y-33214011D01*
X47813000Y-33481589D01*
X42951000Y-33481589D01*
X42951000Y-31457561D01*
X54210000Y-31457561D01*
X54210000Y-31661439D01*
X54249774Y-31861398D01*
X54327795Y-32049756D01*
X54441063Y-32219274D01*
X54585226Y-32363437D01*
X54754744Y-32476705D01*
X54943102Y-32554726D01*
X54999957Y-32566035D01*
X56011000Y-33577079D01*
X56011001Y-39453521D01*
X56006719Y-39497000D01*
X56023805Y-39670490D01*
X56074412Y-39837313D01*
X56156590Y-39991059D01*
X56239468Y-40092046D01*
X56239471Y-40092049D01*
X56267184Y-40125817D01*
X56300951Y-40153529D01*
X57789000Y-41641579D01*
X57789001Y-45181550D01*
X57756795Y-45229750D01*
X57678774Y-45418108D01*
X57639000Y-45618067D01*
X57639000Y-45821945D01*
X57678774Y-46021904D01*
X57756795Y-46210262D01*
X57870063Y-46379780D01*
X58014226Y-46523943D01*
X58183744Y-46637211D01*
X58372102Y-46715232D01*
X58572061Y-46755006D01*
X58775939Y-46755006D01*
X58975898Y-46715232D01*
X59164256Y-46637211D01*
X59333774Y-46523943D01*
X59477937Y-46379780D01*
X59591205Y-46210262D01*
X59669226Y-46021904D01*
X59709000Y-45821945D01*
X59709000Y-45618067D01*
X59669226Y-45418108D01*
X59591205Y-45229750D01*
X59559000Y-45181552D01*
X59559000Y-41318469D01*
X59563281Y-41275000D01*
X59559000Y-41231531D01*
X59559000Y-41231523D01*
X59546195Y-41101510D01*
X59495589Y-40934687D01*
X59413411Y-40780941D01*
X59363525Y-40720155D01*
X59330532Y-40679953D01*
X59330530Y-40679951D01*
X59302817Y-40646183D01*
X59269050Y-40618471D01*
X57781000Y-39130422D01*
X57781000Y-33253969D01*
X57785281Y-33210500D01*
X57781000Y-33167031D01*
X57781000Y-33167023D01*
X57768195Y-33037010D01*
X57745428Y-32961957D01*
X57717589Y-32870186D01*
X57635411Y-32716441D01*
X57552532Y-32615453D01*
X57552530Y-32615451D01*
X57524817Y-32581683D01*
X57491050Y-32553971D01*
X56251535Y-31314457D01*
X56240226Y-31257602D01*
X56162205Y-31069244D01*
X56048937Y-30899726D01*
X55904774Y-30755563D01*
X55735256Y-30642295D01*
X55546898Y-30564274D01*
X55346939Y-30524500D01*
X55143061Y-30524500D01*
X54943102Y-30564274D01*
X54754744Y-30642295D01*
X54585226Y-30755563D01*
X54441063Y-30899726D01*
X54327795Y-31069244D01*
X54249774Y-31257602D01*
X54210000Y-31457561D01*
X42951000Y-31457561D01*
X42951000Y-28729589D01*
X56605000Y-28729589D01*
X56605000Y-29002411D01*
X56658225Y-29269989D01*
X56762629Y-29522043D01*
X56914201Y-29748886D01*
X57107114Y-29941799D01*
X57333957Y-30093371D01*
X57586011Y-30197775D01*
X57853589Y-30251000D01*
X58126411Y-30251000D01*
X58393989Y-30197775D01*
X58646043Y-30093371D01*
X58872886Y-29941799D01*
X59065799Y-29748886D01*
X59217371Y-29522043D01*
X59321775Y-29269989D01*
X59375000Y-29002411D01*
X59375000Y-28729589D01*
X59321775Y-28462011D01*
X59217371Y-28209957D01*
X59065799Y-27983114D01*
X58872886Y-27790201D01*
X58646043Y-27638629D01*
X58393989Y-27534225D01*
X58126411Y-27481000D01*
X57853589Y-27481000D01*
X57586011Y-27534225D01*
X57333957Y-27638629D01*
X57107114Y-27790201D01*
X56914201Y-27983114D01*
X56762629Y-28209957D01*
X56658225Y-28462011D01*
X56605000Y-28729589D01*
X42951000Y-28729589D01*
X42951000Y-26702279D01*
X42980234Y-26404125D01*
X43057448Y-26148378D01*
X43182869Y-25912496D01*
X43371565Y-25681133D01*
X45223109Y-23829589D01*
X56605000Y-23829589D01*
X56605000Y-24102411D01*
X56658225Y-24369989D01*
X56762629Y-24622043D01*
X56914201Y-24848886D01*
X57107114Y-25041799D01*
X57333957Y-25193371D01*
X57586011Y-25297775D01*
X57853589Y-25351000D01*
X58126411Y-25351000D01*
X58393989Y-25297775D01*
X58646043Y-25193371D01*
X58872886Y-25041799D01*
X59065799Y-24848886D01*
X59217371Y-24622043D01*
X59321775Y-24369989D01*
X59375000Y-24102411D01*
X59375000Y-23829589D01*
X59321775Y-23562011D01*
X59217371Y-23309957D01*
X59065799Y-23083114D01*
X58872886Y-22890201D01*
X58646043Y-22738629D01*
X58393989Y-22634225D01*
X58126411Y-22581000D01*
X57853589Y-22581000D01*
X57586011Y-22634225D01*
X57333957Y-22738629D01*
X57107114Y-22890201D01*
X56914201Y-23083114D01*
X56762629Y-23309957D01*
X56658225Y-23562011D01*
X56605000Y-23829589D01*
X45223109Y-23829589D01*
X51630058Y-17422641D01*
X51862848Y-17222600D01*
X52095427Y-17091158D01*
X52349104Y-17007394D01*
X52642189Y-16971029D01*
X52653623Y-16970882D01*
X63848719Y-16970882D01*
X63949533Y-16980767D01*
%TA.AperFunction,Conductor*%
D13*
G36*
X63949533Y-16980767D02*
G01*
X64015457Y-17000671D01*
X64076255Y-17032997D01*
X64129619Y-17076521D01*
X64173512Y-17129578D01*
X64206266Y-17190153D01*
X64226628Y-17255935D01*
X64237000Y-17354613D01*
X64237001Y-35119235D01*
X64219792Y-35432543D01*
X64153609Y-35691360D01*
X64038413Y-35932398D01*
X63863781Y-36166311D01*
X63832200Y-36199391D01*
X60685697Y-39329625D01*
X60667906Y-39351189D01*
X60663562Y-39355443D01*
X60657689Y-39362544D01*
X60407041Y-39669869D01*
X60373959Y-39719662D01*
X60340141Y-39769051D01*
X60335759Y-39777157D01*
X60149577Y-40127313D01*
X60126776Y-40182633D01*
X60103216Y-40237601D01*
X60100491Y-40246405D01*
X59985868Y-40626056D01*
X59974249Y-40684736D01*
X59961812Y-40743246D01*
X59960849Y-40752411D01*
X59922150Y-41147095D01*
X59922150Y-41147108D01*
X59919001Y-41179081D01*
X59919000Y-53053719D01*
X59909115Y-53154531D01*
X59889211Y-53220458D01*
X59856885Y-53281255D01*
X59813362Y-53334618D01*
X59760300Y-53378515D01*
X59699727Y-53411266D01*
X59633947Y-53431628D01*
X59535269Y-53442000D01*
X47657281Y-53442000D01*
X47556469Y-53432115D01*
X47490542Y-53412211D01*
X47429745Y-53379885D01*
X47376382Y-53336362D01*
X47332485Y-53283300D01*
X47299734Y-53222727D01*
X47279372Y-53156947D01*
X47269000Y-53058269D01*
X47269000Y-51063209D01*
X47266415Y-51036959D01*
X47266477Y-51031011D01*
X47265609Y-51021837D01*
X47225532Y-50627290D01*
X47213706Y-50568640D01*
X47202705Y-50509854D01*
X47200072Y-50501023D01*
X47084124Y-50121774D01*
X47061123Y-50066518D01*
X47038921Y-50011008D01*
X47034623Y-50002856D01*
X46847220Y-49653351D01*
X46813949Y-49603652D01*
X46781364Y-49553474D01*
X46775564Y-49546313D01*
X46564650Y-49289542D01*
X46564309Y-49288908D01*
X46502303Y-49213752D01*
X43373266Y-46100896D01*
X43183653Y-45870057D01*
X43057410Y-45634615D01*
X42979303Y-45379138D01*
X42949804Y-45088725D01*
X42950362Y-45060399D01*
X42951000Y-45053919D01*
X42951000Y-38381589D01*
X47813000Y-38381589D01*
X47813000Y-38654411D01*
X47866225Y-38921989D01*
X47970629Y-39174043D01*
X48122201Y-39400886D01*
X48315114Y-39593799D01*
X48541957Y-39745371D01*
X48794011Y-39849775D01*
X49061589Y-39903000D01*
X49334411Y-39903000D01*
X49601989Y-39849775D01*
X49854043Y-39745371D01*
X50080886Y-39593799D01*
X50273799Y-39400886D01*
X50425371Y-39174043D01*
X50529775Y-38921989D01*
X50583000Y-38654411D01*
X50583000Y-38381589D01*
X50529775Y-38114011D01*
X50425371Y-37861957D01*
X50273799Y-37635114D01*
X50080886Y-37442201D01*
X49854043Y-37290629D01*
X49601989Y-37186225D01*
X49334411Y-37133000D01*
X49061589Y-37133000D01*
X48794011Y-37186225D01*
X48541957Y-37290629D01*
X48315114Y-37442201D01*
X48122201Y-37635114D01*
X47970629Y-37861957D01*
X47866225Y-38114011D01*
X47813000Y-38381589D01*
X42951000Y-38381589D01*
X42951000Y-33481589D01*
X47813000Y-33481589D01*
X47813000Y-33754411D01*
X47866225Y-34021989D01*
X47970629Y-34274043D01*
X48122201Y-34500886D01*
X48315114Y-34693799D01*
X48541957Y-34845371D01*
X48794011Y-34949775D01*
X49061589Y-35003000D01*
X49334411Y-35003000D01*
X49601989Y-34949775D01*
X49854043Y-34845371D01*
X50080886Y-34693799D01*
X50273799Y-34500886D01*
X50425371Y-34274043D01*
X50529775Y-34021989D01*
X50583000Y-33754411D01*
X50583000Y-33481589D01*
X50529775Y-33214011D01*
X50425371Y-32961957D01*
X50273799Y-32735114D01*
X50080886Y-32542201D01*
X49854043Y-32390629D01*
X49601989Y-32286225D01*
X49334411Y-32233000D01*
X49061589Y-32233000D01*
X48794011Y-32286225D01*
X48541957Y-32390629D01*
X48315114Y-32542201D01*
X48122201Y-32735114D01*
X47970629Y-32961957D01*
X47866225Y-33214011D01*
X47813000Y-33481589D01*
X42951000Y-33481589D01*
X42951000Y-31457561D01*
X54210000Y-31457561D01*
X54210000Y-31661439D01*
X54249774Y-31861398D01*
X54327795Y-32049756D01*
X54441063Y-32219274D01*
X54585226Y-32363437D01*
X54754744Y-32476705D01*
X54943102Y-32554726D01*
X54999957Y-32566035D01*
X56011000Y-33577079D01*
X56011001Y-39453521D01*
X56006719Y-39497000D01*
X56023805Y-39670490D01*
X56074412Y-39837313D01*
X56156590Y-39991059D01*
X56239468Y-40092046D01*
X56239471Y-40092049D01*
X56267184Y-40125817D01*
X56300951Y-40153529D01*
X57789000Y-41641579D01*
X57789001Y-45181550D01*
X57756795Y-45229750D01*
X57678774Y-45418108D01*
X57639000Y-45618067D01*
X57639000Y-45821945D01*
X57678774Y-46021904D01*
X57756795Y-46210262D01*
X57870063Y-46379780D01*
X58014226Y-46523943D01*
X58183744Y-46637211D01*
X58372102Y-46715232D01*
X58572061Y-46755006D01*
X58775939Y-46755006D01*
X58975898Y-46715232D01*
X59164256Y-46637211D01*
X59333774Y-46523943D01*
X59477937Y-46379780D01*
X59591205Y-46210262D01*
X59669226Y-46021904D01*
X59709000Y-45821945D01*
X59709000Y-45618067D01*
X59669226Y-45418108D01*
X59591205Y-45229750D01*
X59559000Y-45181552D01*
X59559000Y-41318469D01*
X59563281Y-41275000D01*
X59559000Y-41231531D01*
X59559000Y-41231523D01*
X59546195Y-41101510D01*
X59495589Y-40934687D01*
X59413411Y-40780941D01*
X59363525Y-40720155D01*
X59330532Y-40679953D01*
X59330530Y-40679951D01*
X59302817Y-40646183D01*
X59269050Y-40618471D01*
X57781000Y-39130422D01*
X57781000Y-33253969D01*
X57785281Y-33210500D01*
X57781000Y-33167031D01*
X57781000Y-33167023D01*
X57768195Y-33037010D01*
X57745428Y-32961957D01*
X57717589Y-32870186D01*
X57635411Y-32716441D01*
X57552532Y-32615453D01*
X57552530Y-32615451D01*
X57524817Y-32581683D01*
X57491050Y-32553971D01*
X56251535Y-31314457D01*
X56240226Y-31257602D01*
X56162205Y-31069244D01*
X56048937Y-30899726D01*
X55904774Y-30755563D01*
X55735256Y-30642295D01*
X55546898Y-30564274D01*
X55346939Y-30524500D01*
X55143061Y-30524500D01*
X54943102Y-30564274D01*
X54754744Y-30642295D01*
X54585226Y-30755563D01*
X54441063Y-30899726D01*
X54327795Y-31069244D01*
X54249774Y-31257602D01*
X54210000Y-31457561D01*
X42951000Y-31457561D01*
X42951000Y-28729589D01*
X56605000Y-28729589D01*
X56605000Y-29002411D01*
X56658225Y-29269989D01*
X56762629Y-29522043D01*
X56914201Y-29748886D01*
X57107114Y-29941799D01*
X57333957Y-30093371D01*
X57586011Y-30197775D01*
X57853589Y-30251000D01*
X58126411Y-30251000D01*
X58393989Y-30197775D01*
X58646043Y-30093371D01*
X58872886Y-29941799D01*
X59065799Y-29748886D01*
X59217371Y-29522043D01*
X59321775Y-29269989D01*
X59375000Y-29002411D01*
X59375000Y-28729589D01*
X59321775Y-28462011D01*
X59217371Y-28209957D01*
X59065799Y-27983114D01*
X58872886Y-27790201D01*
X58646043Y-27638629D01*
X58393989Y-27534225D01*
X58126411Y-27481000D01*
X57853589Y-27481000D01*
X57586011Y-27534225D01*
X57333957Y-27638629D01*
X57107114Y-27790201D01*
X56914201Y-27983114D01*
X56762629Y-28209957D01*
X56658225Y-28462011D01*
X56605000Y-28729589D01*
X42951000Y-28729589D01*
X42951000Y-26702279D01*
X42980234Y-26404125D01*
X43057448Y-26148378D01*
X43182869Y-25912496D01*
X43371565Y-25681133D01*
X45223109Y-23829589D01*
X56605000Y-23829589D01*
X56605000Y-24102411D01*
X56658225Y-24369989D01*
X56762629Y-24622043D01*
X56914201Y-24848886D01*
X57107114Y-25041799D01*
X57333957Y-25193371D01*
X57586011Y-25297775D01*
X57853589Y-25351000D01*
X58126411Y-25351000D01*
X58393989Y-25297775D01*
X58646043Y-25193371D01*
X58872886Y-25041799D01*
X59065799Y-24848886D01*
X59217371Y-24622043D01*
X59321775Y-24369989D01*
X59375000Y-24102411D01*
X59375000Y-23829589D01*
X59321775Y-23562011D01*
X59217371Y-23309957D01*
X59065799Y-23083114D01*
X58872886Y-22890201D01*
X58646043Y-22738629D01*
X58393989Y-22634225D01*
X58126411Y-22581000D01*
X57853589Y-22581000D01*
X57586011Y-22634225D01*
X57333957Y-22738629D01*
X57107114Y-22890201D01*
X56914201Y-23083114D01*
X56762629Y-23309957D01*
X56658225Y-23562011D01*
X56605000Y-23829589D01*
X45223109Y-23829589D01*
X51630058Y-17422641D01*
X51862848Y-17222600D01*
X52095427Y-17091158D01*
X52349104Y-17007394D01*
X52642189Y-16971029D01*
X52653623Y-16970882D01*
X63848719Y-16970882D01*
X63949533Y-16980767D01*
G37*
%TD.AperFunction*%
%TD*%
M02*
